<svg xmlns="http://www.w3.org/2000/svg" width="79" height="101" viewBox="0 0 79 101" fill="none">
  <circle cx="39.1709" cy="51.0208" r="11.5208" fill="#1D0F48"/>
  <path d="M39.1708 0C47.3515 0 53.9833 6.63178 53.9833 14.8125C53.9833 22.9932 47.3515 29.625 39.1708 29.625C30.9901 29.625 24.3583 22.9932 24.3583 14.8125C24.3583 6.63178 30.9901 0 39.1708 0ZM39.1708 9.875C36.4439 9.87503 34.2333 12.0856 34.2333 14.8125C34.2333 17.5394 36.4439 19.75 39.1708 19.75C41.8977 19.75 44.1083 17.5394 44.1083 14.8125C44.1083 12.0856 41.8977 9.875 39.1708 9.875Z" fill="#1D0F48"/>
  <rect x="35.55" y="22.3833" width="7.9" height="64.5167" fill="#1D0F48"/>
  <rect x="30.1898" y="90.85" width="13.1667" height="13.1667" transform="rotate(-45 30.1898 90.85)" fill="#1D0F48"/>
  <mask id="mask0_4062_16234" style="mask-type:alpha" maskUnits="userSpaceOnUse" x="0" y="15" width="79" height="80">
    <path d="M39.5 94.1417C61.3152 94.1417 79 76.457 79 54.6417C79 32.8265 61.3152 15.1417 39.5 15.1417C17.6848 15.1417 0 32.8265 0 54.6417C0 76.457 17.6848 94.1417 39.5 94.1417ZM39.5 87.5587C21.3206 87.5587 6.58301 72.8211 6.58301 54.6417C6.58302 36.4624 21.3206 21.7247 39.5 21.7247C57.6794 21.7247 72.417 36.4624 72.417 54.6417C72.417 72.8211 57.6794 87.5587 39.5 87.5587Z" fill="#D9D9D9"/>
    <circle cx="6.58333" cy="6.58333" r="6.58333" transform="matrix(1 0 0 -1 3.29163 62.5417)" fill="#D9D9D9"/>
    <circle cx="6.58333" cy="6.58333" r="6.58333" transform="matrix(1 0 0 -1 62.5416 62.5417)" fill="#D9D9D9"/>
  </mask>
  <g mask="url(#mask0_4062_16234)">
    <path d="M39.5 95.4584C61.3152 95.4584 79 77.7736 79 55.9584H0C0 77.7736 17.6848 95.4584 39.5 95.4584Z" fill="#1D0F48"/>
  </g>
</svg>