<svg width="20" height="15" viewBox="0 0 20 15" fill="none" xmlns="http://www.w3.org/2000/svg">
<path d="M1.18945 3.50671H19.3552" stroke="#9D9D9D" stroke-linecap="round"/>
<path d="M1.18945 8.00891H19.3552" stroke="#9D9D9D" stroke-linecap="round"/>
<path d="M1.18945 12.5111H19.3552" stroke="#9D9D9D" stroke-linecap="round"/>
<path d="M7.06738 1.3053C8.34995 1.3055 9.23819 2.16611 9.23828 3.05627C9.23828 3.94649 8.35002 4.80705 7.06738 4.80725C5.78451 4.80725 4.89551 3.9466 4.89551 3.05627C4.8956 2.166 5.78457 1.3053 7.06738 1.3053Z" fill="#EAE8E8" stroke="#9D9D9D"/>
<path d="M15.6152 5.80762C16.8978 5.80782 17.786 6.66842 17.7861 7.55859C17.7861 8.44881 16.8979 9.30937 15.6152 9.30957C14.3324 9.30957 13.4434 8.44891 13.4434 7.55859C13.4435 6.66832 14.3324 5.80762 15.6152 5.80762Z" fill="#EAE8E8" stroke="#9D9D9D"/>
<path d="M9.20312 10.3098C10.4857 10.31 11.3739 11.1706 11.374 12.0608C11.374 12.951 10.4858 13.8116 9.20312 13.8118C7.92025 13.8118 7.03125 12.9511 7.03125 12.0608C7.03134 11.1705 7.92032 10.3098 9.20312 10.3098Z" fill="#EAE8E8" stroke="#9D9D9D"/>
</svg>
