<svg width="20" height="20" viewBox="0 0 20 20" fill="none" xmlns="http://www.w3.org/2000/svg">
<circle cx="10" cy="10" r="10" fill="#FEB83C"/>
<circle cx="9.99991" cy="9.99998" r="8.15" fill="#FFC45A" stroke="#AA7E31" stroke-width="0.5"/>
<path d="M12.4927 8.79998C11.8819 8.07036 11.5233 7.66371 10.4927 6.99998C10.4927 6.99998 10.8927 5.59998 10.0927 5.59998C9.29274 5.59998 7.60006 6.99998 7.00009 7.39998C6.40011 7.79998 4.49274 9.99998 4.49274 9.99998C3.60869 10.4937 9.30229 15.1366 10.8927 14.6L10.4927 13C11.764 12.3972 12.0797 11.983 12.4927 11.2C12.4927 11.2 15.0927 12.2 15.4927 12.2C15.8928 12.2 14.2927 9.99998 14.2927 9.99998C14.2927 9.99998 15.8928 8.19998 15.4927 7.99998C15.0927 7.79998 12.4927 8.79998 12.4927 8.79998Z" fill="#FEB83C" stroke="#AA7E31" stroke-width="0.75"/>
<path d="M7.44199 9.13733C7.44199 9.10854 7.44199 9.03614 7.48516 8.94892C7.5084 8.90197 7.6147 8.91926 7.66638 8.94085C7.71806 8.96244 7.73245 9.00561 7.73267 9.05664C7.73289 9.10767 7.7185 9.16524 7.68949 9.20209C7.66049 9.23895 7.61731 9.25334 7.57348 9.24636C7.52965 9.23938 7.48647 9.2106 7.45703 9.17418C7.4276 9.13776 7.4132 9.09459 7.42738 9.06515C7.44155 9.03571 7.48473 9.02131 7.57283 9.0501" stroke="#AA7E31" stroke-linecap="round"/>
</svg>
