<svg width="249" height="249" viewBox="0 0 249 249" fill="none" xmlns="http://www.w3.org/2000/svg">
<g clip-path="url(#clip0_2208_1095)">
<path d="M62.0175 126.067C59.8067 123.997 56.3359 124.111 54.2653 126.321C52.1948 128.532 52.3085 132.003 54.5194 134.074C56.7302 136.144 60.201 136.03 62.2716 133.82C64.3421 131.609 64.2284 128.138 62.0175 126.067Z" fill="#9D9D9D"/>
<path d="M31.517 142.588C48.5174 158.47 71.1226 166.961 94.3749 166.199C117.627 165.437 139.628 155.484 155.552 138.523L163.05 130.517L191.072 156.761C191.864 157.502 192.858 157.992 193.928 158.168C194.998 158.345 196.096 158.2 197.084 157.753C198.072 157.305 198.905 156.574 199.478 155.653C200.051 154.732 200.337 153.662 200.302 152.578L198.27 90.5605C198.234 89.4766 197.878 88.4275 197.246 87.546C196.614 86.6644 195.735 85.99 194.72 85.608C193.705 85.2259 192.6 85.1534 191.543 85.3996C190.487 85.6458 189.527 86.1996 188.786 86.9911L162.542 115.013L154.536 107.515C137.536 91.6328 114.93 83.1417 91.6782 83.9037C68.426 84.6656 46.4251 94.6184 30.5009 111.579L15.5045 127.592L31.517 142.588ZM187.742 104.153L188.907 139.704L170.549 122.511L187.742 104.153ZM155.044 123.019L147.546 131.025C134.009 145.477 115.394 154.113 95.6181 155.116L93.6443 94.8814C113.443 94.5874 132.584 101.986 147.038 115.521L155.044 123.019ZM38.5071 119.077C50.2063 106.575 65.7736 98.3751 82.701 95.7988L84.6342 154.913C67.5763 153.451 51.5072 146.289 39.0152 134.582L31.0089 127.084L38.5071 119.077Z" fill="#9D9D9D"/>
</g>
<defs>
<clipPath id="clip0_2208_1095">
<rect width="175.506" height="175.506" fill="white" transform="translate(128.1 248.07) rotate(-136.877)"/>
</clipPath>
</defs>
</svg>
