<svg width="201" height="160" viewBox="0 0 201 160" fill="none" xmlns="http://www.w3.org/2000/svg">
<g clip-path="url(#clip0_4208_13566)">
<path d="M190.426 73.3331L190.372 73.3603C187.377 74.6144 184.041 75.3252 180.733 75.6693C180.733 75.6829 180.715 75.6784 180.715 75.6784C177.774 75.9817 174.86 76.0044 172.228 75.864C172.228 75.864 172.219 75.864 172.215 75.864C169.791 75.7418 167.608 75.4837 165.852 75.1939C164.513 74.9676 163.229 74.7276 161.967 74.4695C148.602 71.762 139.336 67.1756 130.187 61.8059C130.187 61.8059 130.187 61.8059 130.182 61.8059C122.567 57.3281 115.029 52.3116 105.272 47.3765C104.042 46.7517 102.776 46.1269 101.469 45.5112C100.661 45.1263 99.8262 44.7415 98.9776 44.343C96.8038 43.3606 94.4712 42.3962 91.9797 41.4816C91.6757 41.7985 91.3308 42.111 90.9496 42.4188C89.8332 43.3198 88.44 44.1574 86.956 44.7641C86.9197 44.7777 86.8879 44.7913 86.8561 44.8049L86.8289 44.8184C84.2331 45.8553 81.374 46.1812 79.2774 44.9407C77.1989 43.7092 75.547 40.7527 76.373 38.5251C76.5636 38.0271 76.8586 37.606 77.2307 37.2529C76.2459 37.0401 75.2521 36.8409 74.2264 36.6552C73.9269 36.6009 73.6228 36.5466 73.3188 36.4922C64.0564 34.8532 53.2964 34.0745 40.8164 34.7853C40.7892 34.9981 40.7438 35.22 40.6848 35.4464C39.9224 38.5387 36.8592 43.0074 32.2983 53.4525C31.8989 54.3626 31.5268 55.2319 31.1774 56.0695C26.494 67.2526 25.8133 71.8888 23.4216 71.9024C23.3763 71.9024 23.3263 71.9024 23.2764 71.8933C20.4991 71.7077 17.4358 65.4189 16.0244 58.6774C15.6977 57.138 15.4662 55.5805 15.3346 54.0592C14.7401 46.8966 16.9184 44.8999 14.8672 40.4674C14.8218 40.3678 14.7764 40.2728 14.731 40.1822C14.6947 40.1007 14.6539 40.0237 14.6131 39.9513C14.5541 39.8336 14.4951 39.7204 14.4315 39.6163C14.3907 39.5393 14.3498 39.4668 14.3045 39.3944C14.2545 39.3084 14.2046 39.2224 14.1456 39.1409C14.0957 39.0594 14.0412 38.9779 13.9868 38.8964C13.9142 38.7877 13.8461 38.6926 13.7735 38.593C13.7236 38.5296 13.6737 38.4436 13.6147 38.3848C13.5466 38.2942 13.474 38.2127 13.4014 38.1312C13.2198 37.9094 13.0247 37.7101 12.8341 37.52C12.7433 37.4294 12.6526 37.3479 12.5618 37.2619C12.4665 37.1714 12.3712 37.0853 12.2714 37.0038C11.9991 36.7684 11.7222 36.5466 11.4318 36.3383C11.2004 36.1662 10.9553 35.9942 10.7057 35.8221C10.1611 35.4418 9.59384 35.0615 9.00388 34.6359C8.57729 34.3235 8.13709 33.9885 7.68781 33.6082C7.58343 33.5176 7.47905 33.4271 7.37468 33.3365C7.37014 33.3365 7.3656 33.332 7.36106 33.3274C7.15684 33.1463 6.95263 32.9562 6.74387 32.7479C6.63949 32.6438 6.53512 32.5396 6.4262 32.431C6.32182 32.3269 6.20837 32.2091 6.10399 32.096C6.01776 32.0009 5.93154 31.9058 5.83624 31.8062C5.60025 31.5436 5.35973 31.2538 5.11921 30.9505C5.01029 30.8146 4.90138 30.6698 4.78792 30.5204C4.67447 30.38 4.56555 30.2261 4.45663 30.0721C4.23426 29.7642 4.02551 29.4473 3.81675 29.1259C2.5506 27.1699 1.48867 24.9469 0.807948 22.8733C0.730799 22.6333 0.65365 22.3979 0.585577 22.1579C0.517505 21.9225 0.453971 21.6871 0.394974 21.4607C0.340516 21.2298 0.290597 21.0034 0.240677 20.7815C0.199833 20.5597 0.15899 20.3424 0.122684 20.125C0.0909172 19.9122 0.0636882 19.704 0.0409974 19.5002C0.0228447 19.2965 0.00923018 19.0973 0.000153846 18.9071C-0.0134607 18.5268 0.000153845 18.1691 0.0455355 17.8431C0.0455355 17.8431 0.0455355 17.8431 0.0455355 17.8386C0.0682264 17.6801 0.0999935 17.5217 0.136299 17.3768C0.154452 17.2998 0.177142 17.2274 0.199833 17.1549C0.222524 17.087 0.249753 17.0191 0.272444 16.9557C0.340516 16.7882 0.426742 16.6297 0.522043 16.4984C0.612806 16.3671 0.712646 16.254 0.830639 16.1544C1.25269 15.7921 1.78365 15.6925 2.4553 15.8057C2.6096 15.8329 2.75936 15.8691 2.92727 15.9189C3.18141 15.9868 3.46278 16.0864 3.75776 16.2087C4.00282 16.3083 4.25696 16.4215 4.52925 16.5483C4.66539 16.6116 4.80607 16.6841 4.9513 16.752C5.51857 17.0372 6.14483 17.3677 6.83917 17.7435H6.84371C7.17046 17.9201 7.50628 18.1012 7.8648 18.3004C8.09625 18.4317 8.34131 18.5676 8.59544 18.7034C8.84958 18.8392 9.10372 18.975 9.36693 19.1154C9.494 19.1878 9.63015 19.2603 9.77083 19.3327C11.8448 20.442 14.3453 21.7187 17.3586 23.0182C17.4267 23.0499 17.4993 23.077 17.5674 23.1087C17.64 23.1404 17.7126 23.1721 17.7898 23.2038C18.112 23.3441 18.4387 23.4754 18.77 23.6113C19.0968 23.7471 19.4144 23.8739 19.7321 24.0006C20.0498 24.1274 20.3675 24.2497 20.6715 24.3674C21.2842 24.6028 21.8832 24.8247 22.4595 25.0284C24.0071 25.5762 25.432 26.0335 26.7436 26.4184C27.0749 26.5134 27.3971 26.604 27.7102 26.6945C29.471 27.1835 31.0185 27.5503 32.3664 27.8672C32.5887 27.917 32.7975 27.9713 33.0063 28.0166C33.4646 28.1253 33.9003 28.2294 34.3178 28.329C34.5492 28.3879 34.7761 28.4467 34.994 28.5011C35.2118 28.5599 35.4251 28.6142 35.6339 28.6731C35.77 28.7139 35.9061 28.7546 36.0332 28.7908C36.2284 28.8497 36.419 28.9085 36.6005 28.9719C36.6912 29.0036 36.7775 29.0353 36.8682 29.067C37.322 29.2255 37.7259 29.3975 38.0981 29.5967C38.1253 29.5831 38.1525 29.5696 38.1843 29.565C68.2678 17.2319 94.4984 15.1175 103.679 14.7055C104.378 14.6738 104.982 14.6512 105.476 14.6376C104.796 12.9986 104.687 11.1016 105.485 8.91023C105.64 8.49822 106.556 5.98089 108.621 3.69446C109.388 2.84781 110.318 2.03284 111.439 1.3854C111.507 1.34465 111.576 1.29938 111.644 1.26316C111.934 1.08658 112.243 0.928116 112.569 0.783234C115.297 -0.416574 119.935 -1.11835 132.742 6.01258C134.176 6.81396 135.587 7.59724 136.953 8.36692C142.971 11.7671 148.09 14.8459 150.581 17.4809C158.305 18.9886 166.052 21.2207 173.104 24.5123C181.994 28.6595 189.795 34.4729 195.055 42.6316C196.752 45.2712 203.914 56.3547 199.648 65.1065C199.575 65.2967 199.489 65.4597 199.398 65.6272C199.276 65.8581 199.158 66.0664 199.031 66.2701C198.967 66.3742 198.904 66.4784 198.835 66.5825C198.772 66.6821 198.699 66.7817 198.627 66.8813C198.568 66.9719 198.504 67.0579 198.441 67.1439C197.728 68.1672 196.911 69.0863 196.013 69.8967C194.384 71.35 192.477 72.4819 190.413 73.3558L190.426 73.3331Z" fill="white"/>
<path d="M190.372 73.3603C187.377 74.6144 184.041 75.3253 180.733 75.6693C180.733 75.6829 180.714 75.6784 180.714 75.6784C177.774 75.9818 174.86 76.0044 172.228 75.864C172.228 75.864 172.219 75.864 172.215 75.864C169.791 75.7418 167.608 75.4837 165.852 75.194C164.513 74.9676 163.229 74.7276 161.967 74.4695C148.602 71.762 139.335 67.1756 130.187 61.8059C130.187 61.8059 130.187 61.8059 130.182 61.8059C122.567 57.3281 115.029 52.3116 105.272 47.3765C104.042 46.7517 102.776 46.1269 101.469 45.5112C100.661 45.1263 99.8262 44.7415 98.9776 44.3431C96.8038 43.3606 94.4712 42.3962 91.9797 41.4816C91.6756 41.7986 91.3307 42.111 90.9495 42.4188C90.768 42.3464 90.5865 42.2785 90.405 42.2151C89.52 43.1251 88.3083 44.0216 86.9469 44.7551C86.9151 44.7686 86.8879 44.7868 86.8606 44.8049L86.8334 44.8184C84.2376 45.8553 81.3785 46.1812 79.2819 44.9407C77.2034 43.7092 75.5515 40.7527 76.3775 38.5251C76.5681 38.0271 76.8631 37.606 77.2352 37.2529C76.2504 37.0401 75.2566 36.8409 74.2309 36.6552C73.9314 36.6009 73.6274 36.5466 73.3233 36.4922C64.0609 34.8533 53.3009 34.0745 40.8209 34.7853C40.7937 34.9981 40.7483 35.22 40.6893 35.4464C40.2128 35.469 39.7318 35.4962 39.2462 35.5233C38.7878 38.6564 35.6338 42.9757 30.7371 54.1815C30.3423 55.0825 29.9792 55.9427 29.6343 56.7667C25.9947 65.4506 24.7649 70.191 23.2855 71.8933C20.5081 71.7077 17.4448 65.4189 16.0335 58.6774C15.7067 57.138 15.4753 55.5805 15.3437 54.0592C14.7492 46.8966 16.9275 44.8999 14.8762 40.4674C14.8308 40.3678 14.7855 40.2728 14.7401 40.1822C14.7038 40.1007 14.6629 40.0237 14.6221 39.9513C14.5631 39.8336 14.5041 39.7204 14.4406 39.6163C14.3997 39.5393 14.3589 39.4669 14.3135 39.3944C14.2636 39.3084 14.2137 39.2224 14.1547 39.1409C14.1047 39.0594 14.0503 38.9779 13.9958 38.8964C13.9232 38.7877 13.8551 38.6926 13.7825 38.593C13.7326 38.5296 13.6827 38.4436 13.6237 38.3848C13.5556 38.2942 13.483 38.2127 13.4104 38.1312C13.2289 37.9094 13.0337 37.7102 12.8431 37.52C12.7524 37.4294 12.6616 37.3479 12.5708 37.2619C12.4755 37.1714 12.3802 37.0854 12.2804 37.0039C12.0081 36.7684 11.7313 36.5466 11.4408 36.3383C11.2094 36.1662 10.9643 35.9942 10.7147 35.8222C10.1701 35.4418 9.60287 35.0615 9.01291 34.6359C8.58632 34.3235 8.14612 33.9885 7.69684 33.6082C7.59247 33.5176 7.48809 33.4271 7.38371 33.3365C7.37917 33.3365 7.37463 33.332 7.3701 33.3275C7.16588 33.1464 6.96166 32.9562 6.7529 32.7479C6.64853 32.6438 6.54415 32.5397 6.43523 32.431C6.33086 32.3269 6.2174 32.2091 6.11302 32.096C6.0268 32.0009 5.94057 31.9058 5.84527 31.8062C5.60929 31.5436 5.36876 31.2538 5.12824 30.9505C5.01932 30.8147 4.91041 30.6698 4.79695 30.5204C4.6835 30.38 4.57458 30.2261 4.46567 30.0721C4.2433 29.7643 4.03454 29.4473 3.82579 29.1259C2.55964 27.17 1.49771 24.9469 0.816981 22.8733C0.739832 22.6333 0.662683 22.3979 0.594611 22.1579C0.526538 21.9225 0.463004 21.6871 0.404008 21.4607C0.34955 21.2298 0.29963 21.0034 0.24971 20.7815C0.208866 20.5597 0.168023 20.3424 0.131718 20.125C0.0999504 19.9123 0.0727214 19.704 0.0500306 19.5002C0.0318779 19.2965 0.0182634 19.0973 0.00918705 18.9071C-0.00442746 18.5268 0.00918705 18.1691 0.0545687 17.8431C0.0545687 17.8431 0.0545687 17.8431 0.0545687 17.8386C0.0772596 17.6802 0.109027 17.5217 0.145332 17.3768C0.163485 17.2998 0.186176 17.2274 0.208866 17.155C0.231557 17.087 0.258786 17.0191 0.281477 16.9557C0.34955 16.7882 0.435775 16.6298 0.531076 16.4985C2.32819 16.5935 5.25531 18.5811 10.1928 21.1121C11.8266 21.9451 13.6691 22.8371 15.7702 23.7426C16.2377 23.9463 16.7187 24.1455 17.2134 24.3493C17.5628 24.4896 17.8896 24.6164 18.2254 24.7477C18.5884 24.8926 18.956 25.0375 19.31 25.1733C19.6821 25.3182 20.0543 25.4495 20.4173 25.5808C20.7577 25.7075 21.0935 25.8298 21.4248 25.943C21.7606 26.0562 22.0965 26.1739 22.4187 26.2825C22.8226 26.4138 23.2038 26.5406 23.5895 26.6583C23.9979 26.7851 24.3973 26.9074 24.783 27.0251C25.1552 27.1337 25.5318 27.2469 25.8858 27.3465C26.1445 27.419 26.3986 27.4869 26.6528 27.5548C26.9704 27.6408 27.2836 27.7268 27.5876 27.8083C27.8009 27.8627 28.0188 27.917 28.2184 27.9713C28.6995 28.0936 29.1715 28.2068 29.6117 28.3154C29.6117 28.3154 29.6162 28.3154 29.6253 28.3154C30.787 28.5961 31.8172 28.827 32.743 29.0534C32.7748 29.058 32.8065 29.067 32.8383 29.0761C33.3874 29.2119 33.9002 29.3477 34.3767 29.4881C34.4176 29.5017 34.4584 29.5107 34.4993 29.5243C34.7035 29.5832 34.9032 29.6511 35.0983 29.7145C35.18 29.7461 35.2617 29.7778 35.3388 29.8005C35.5249 29.8684 35.711 29.9363 35.8834 30.0087C35.8834 30.0087 35.8834 30.0087 35.8879 30.0133C35.9288 30.0314 35.9696 30.054 36.0105 30.0676C36.1285 30.1174 36.251 30.1717 36.3735 30.2261C36.4008 30.2442 36.428 30.2532 36.4598 30.2668C36.487 30.2849 36.5187 30.303 36.5505 30.3166C36.5777 30.303 36.605 30.2895 36.6367 30.2849C37.1632 30.0676 37.6941 29.8593 38.216 29.642C38.3386 29.5922 38.4565 29.5469 38.5791 29.4971C70.1375 16.9422 97.0851 15.5613 103.929 15.3485C103.842 15.1311 103.761 14.9093 103.693 14.6874C104.392 14.6557 104.995 14.6331 105.49 14.6195C104.809 12.9805 104.7 11.0835 105.499 8.89213C105.653 8.48012 106.57 5.96279 108.635 3.67636C109.402 2.82971 110.332 2.01474 111.453 1.3673C111.521 1.32655 111.589 1.28128 111.657 1.24506C114.475 0.230879 119.336 0.11769 131.194 6.72342C132.619 7.52028 134.021 8.29902 135.374 9.06418C140.461 11.9347 144.908 14.5742 147.672 16.9195C148.185 17.3587 148.639 17.7798 149.029 18.1918C149.887 18.3593 150.744 18.5359 151.598 18.7215C158.396 20.1975 165.153 22.2575 171.37 25.1371C171.429 25.1642 171.493 25.1914 171.552 25.2186C180.447 29.3613 188.248 35.1838 193.503 43.3379C195.137 45.8734 201.808 56.2098 198.549 64.776C198.418 65.1246 198.268 65.4732 198.1 65.8173C198.028 66.0075 197.937 66.166 197.851 66.338C197.724 66.5644 197.61 66.7727 197.478 66.9764C196.97 67.814 196.398 68.5837 195.763 69.2945C194.969 70.1865 194.084 70.9697 193.126 71.6715C193.126 71.676 193.122 71.6806 193.117 71.6806C192.273 72.2963 191.375 72.8487 190.426 73.3286L190.372 73.3558V73.3603Z" fill="white"/>
<path d="M23.417 71.8934C23.3716 71.8934 23.3217 71.8934 23.2718 71.8843C20.4944 71.6987 17.4312 65.4099 16.0198 58.6683C15.693 57.1289 15.4616 55.5715 15.33 54.0502C14.7355 46.8876 16.9138 44.8909 14.8626 40.4584C14.8172 40.3588 14.7718 40.2637 14.7264 40.1732C14.6901 40.0917 14.6493 40.0147 14.6084 39.9423C14.5494 39.8245 14.4904 39.7114 14.4269 39.6072C14.386 39.5303 14.3452 39.4578 14.2998 39.3854C14.2499 39.2993 14.2 39.2133 14.141 39.1318C14.0911 39.0503 14.0366 38.9688 13.9821 38.8873C13.9095 38.7787 13.8415 38.6836 13.7689 38.584C13.7189 38.5206 13.669 38.4346 13.61 38.3757C13.5419 38.2852 13.4693 38.2037 13.3967 38.1222C13.2152 37.9003 13.0201 37.7011 12.8295 37.511C12.7387 37.4204 12.6479 37.3389 12.5572 37.2529C12.4619 37.1623 12.3666 37.0763 12.2667 36.9948C11.9944 36.7594 11.7176 36.5375 11.4272 36.3293C11.1957 36.1572 10.9507 35.9852 10.7011 35.8131C10.1565 35.4328 9.5892 35.0525 8.99924 34.6269C8.57265 34.3145 8.13245 33.9794 7.68317 33.5991C7.57879 33.5086 7.47442 33.418 7.37004 33.3275C7.3655 33.3275 7.36096 33.3229 7.35642 33.3184C7.15221 33.1373 6.94799 32.9472 6.73923 32.7389C6.63485 32.6348 6.53048 32.5306 6.42156 32.422C6.31718 32.3178 6.20373 32.2001 6.09935 32.0869C6.01313 31.9918 5.9269 31.8968 5.8316 31.7972C5.59561 31.5346 5.35509 31.2448 5.11457 30.9414C5.00565 30.8056 4.89674 30.6607 4.78328 30.5113C4.66983 30.371 4.56091 30.217 4.452 30.0631C4.22963 29.7552 4.02087 29.4383 3.81211 29.1168C2.54597 27.1609 1.48403 24.9379 0.803309 22.8642C0.72616 22.6243 0.649011 22.3889 0.580939 22.1489C0.512866 21.9135 0.449332 21.678 0.390336 21.4516C0.335878 21.2207 0.285958 20.9944 0.236038 20.7725C0.195195 20.5507 0.154351 20.3333 0.118046 20.116C0.0862785 19.9032 0.0590495 19.6949 0.0363587 19.4912C0.018206 19.2875 0.00459151 19.0882 -0.00448483 18.8981C-0.0180993 18.5178 -0.00448483 18.1601 0.0408969 17.8341C0.0408969 17.8341 0.0408969 17.8341 0.0408969 17.8296C0.0635877 17.6711 0.0953549 17.5127 0.13166 17.3678C0.149813 17.2908 0.172504 17.2184 0.195195 17.1459C0.217885 17.078 0.245114 17.0101 0.267805 16.9467C0.335878 16.7792 0.422103 16.6207 0.517404 16.4894C0.608168 16.3581 0.708008 16.2449 0.826 16.1453C1.24805 15.7831 1.77902 15.6835 2.45066 15.7967C2.60496 15.8239 2.75472 15.8601 2.92263 15.9099C3.17677 15.9778 3.45814 16.0774 3.75312 16.1997C3.99818 16.2993 4.25232 16.4125 4.52461 16.5392C4.66075 16.6026 4.80143 16.6751 4.94666 16.743C5.51393 17.0282 6.14019 17.3587 6.83453 17.7345H6.83907C7.16582 17.9111 7.50165 18.0922 7.86016 18.2914C8.09161 18.4227 8.33667 18.5585 8.59081 18.6944C8.84494 18.8302 9.09908 18.966 9.36229 19.1064C9.48936 19.1788 9.62551 19.2512 9.76619 19.3237C11.8401 20.4329 14.3407 21.7097 17.354 23.0091C17.4221 23.0408 17.4947 23.0725 17.5673 23.0997C17.6399 23.1314 17.7125 23.1631 17.7897 23.1948C18.1119 23.3351 18.4386 23.4664 18.7699 23.6022C19.0967 23.7381 19.4143 23.8648 19.732 23.9916C20.0497 24.1184 20.3674 24.2406 20.6714 24.3583C21.2841 24.5938 21.8831 24.8156 22.4594 25.0194C24.007 25.5672 25.4319 26.0245 26.7435 26.4093C27.0748 26.5044 27.397 26.595 27.7101 26.6855C29.4709 27.1745 31.0184 27.5412 32.3663 27.8582C32.5886 27.908 32.7974 27.9623 33.0061 28.0076C33.4645 28.1162 33.9002 28.2204 34.3177 28.32C34.5491 28.3788 34.776 28.4377 34.9939 28.492C35.2117 28.5509 35.425 28.6052 35.6337 28.6641C35.7699 28.7048 35.906 28.7456 36.0331 28.7818C36.2282 28.8406 36.4188 28.8995 36.6004 28.9629C36.6911 28.9946 36.7774 29.0263 36.8681 29.058C37.3219 29.2164 37.7258 29.3885 38.098 29.5877C38.1343 29.6058 38.1751 29.6239 38.2024 29.6466C39.1871 30.1944 39.8996 30.9188 40.3943 32.0054C40.8163 32.929 40.9434 33.7938 40.8027 34.7763C40.7755 34.9891 40.7301 35.2109 40.6711 35.4373C39.9087 38.5297 36.8454 42.9984 32.2846 53.4435C31.8852 54.3535 31.5131 55.2228 31.1637 56.0604C26.4803 67.2435 25.7995 71.8798 23.4079 71.8934H23.417Z" fill="#3CA4DC"/>
<path d="M38.0888 29.5831L13.7779 38.5885C13.7234 38.5206 13.669 38.4391 13.6145 38.3712C16.2376 36.8861 19.2827 35.3694 22.7045 33.9839C28.4407 31.6568 33.7186 30.3483 38.0934 29.5831H38.0888Z" fill="#3CA4DC"/>
<path d="M38.0889 29.5877C37.5444 29.6828 36.9816 29.7869 36.4053 29.9001C36.3735 29.9046 36.3417 29.9137 36.31 29.9182C36.1648 29.9454 36.0195 29.9771 35.8698 30.0042C35.7609 30.0269 35.6474 30.054 35.5294 30.0767C34.9531 30.1989 34.3586 30.3302 33.7595 30.4706C33.7096 30.4842 33.6642 30.4932 33.6188 30.5023C33.3466 30.5657 33.0743 30.6336 32.802 30.7015C31.5585 31.0094 30.2606 31.367 28.9309 31.7745C28.6042 31.8741 28.2729 31.9737 27.9416 32.0824C27.6602 32.1775 27.3789 32.268 27.0884 32.3631C26.9205 32.4174 26.7526 32.4763 26.5847 32.5306C26.3487 32.6121 26.1036 32.6936 25.8631 32.7842C25.6589 32.8521 25.4501 32.9291 25.2414 33.006C25.2278 33.0106 25.2096 33.0151 25.2005 33.0196C24.96 33.1102 24.7195 33.1962 24.4744 33.2913C24.184 33.3999 23.889 33.5131 23.594 33.6263C23.2945 33.744 22.9905 33.8617 22.6909 33.984C19.2692 35.3694 16.224 36.8862 13.601 38.3712C13.5329 38.2807 13.4603 38.1992 13.3877 38.1177C13.2062 37.8958 13.011 37.6966 12.8204 37.5064C12.7297 37.4159 12.6389 37.3344 12.5481 37.2484C12.4528 37.1578 12.3575 37.0718 12.2577 36.9903C11.9854 36.7549 11.7086 36.533 11.4181 36.3247C11.1867 36.1527 10.9416 35.9806 10.692 35.8086C10.1474 35.4283 9.58017 35.048 8.99021 34.6224C8.56362 34.31 8.12342 33.9749 7.67414 33.5946C7.56976 33.5041 7.46538 33.4135 7.361 33.323C7.35647 33.323 7.35193 33.3184 7.34739 33.3139C7.14317 33.1328 6.93895 32.9426 6.7302 32.7344C6.62582 32.6302 6.52144 32.5261 6.41253 32.4174C6.30815 32.3133 6.1947 32.1956 6.09032 32.0824C6.00409 31.9873 5.91787 31.8922 5.82257 31.7926C5.58658 31.53 5.34606 31.2403 5.10554 30.9369C4.99662 30.8011 4.8877 30.6562 4.77425 30.5068C4.6608 30.3664 4.55188 30.2125 4.44296 30.0586C4.22059 29.7507 4.01184 29.4338 3.80308 29.1123C2.53693 27.1564 1.475 24.9334 0.794276 22.8597C0.717127 22.6198 0.639978 22.3843 0.571906 22.1444C0.503833 21.9089 0.440299 21.6735 0.381303 21.4471C0.326845 21.2162 0.276925 20.9898 0.227005 20.768C0.186161 20.5461 0.145318 20.3288 0.109012 20.1115C0.0772453 19.8987 0.0500163 19.6904 0.0273255 19.4867C0.00917281 19.2829 -0.00444169 19.0837 -0.013518 18.8936C-0.0271325 18.5133 -0.013518 18.1556 0.0318636 17.8296C0.0318636 17.8296 0.0318636 17.8296 0.0318636 17.8251C0.0545545 17.6666 0.0863217 17.5081 0.122627 17.3633C0.14078 17.2863 0.163471 17.2138 0.186161 17.1414C0.208852 17.0735 0.236081 17.0056 0.258772 16.9422C0.326845 16.7747 0.41307 16.6162 0.508371 16.4849C0.599135 16.3536 0.698974 16.2404 0.816967 16.1408C1.23902 15.7786 1.76998 15.679 2.44163 15.7922C2.59593 15.8193 2.74569 15.8556 2.9136 15.9054C3.16774 15.9733 3.4491 16.0729 3.74408 16.1951C3.98915 16.2947 4.24328 16.4079 4.51557 16.5347C4.65172 16.5981 4.7924 16.6705 4.93762 16.7384C5.50489 17.0237 6.13116 17.3542 6.8255 17.73H6.83004C7.15225 17.9066 7.49261 18.0922 7.85113 18.2869C8.08257 18.4182 8.32763 18.554 8.58177 18.6898C8.83137 18.8211 9.08551 18.9615 9.35326 19.1018C9.48033 19.1743 9.61647 19.2467 9.75716 19.3192C11.8311 20.4284 14.3316 21.7052 17.345 23.0046C17.413 23.0363 17.4857 23.0635 17.5537 23.0952C17.6263 23.1269 17.6989 23.1585 17.7761 23.1902C18.0983 23.3306 18.4251 23.4619 18.7563 23.5977C19.0831 23.7336 19.4008 23.8603 19.7184 23.9871C20.0361 24.1139 20.3538 24.2361 20.6578 24.3538C21.2705 24.5893 21.8695 24.8111 22.4459 25.0149C23.9934 25.5627 25.4184 26.02 26.7299 26.4048C27.0612 26.4999 27.3834 26.5905 27.6965 26.681C29.4573 27.17 31.0049 27.5367 32.3527 27.8536C32.5751 27.9034 32.7838 27.9578 32.9926 28.0031C33.4509 28.1117 33.8866 28.2159 34.3041 28.3155C34.5356 28.3743 34.7625 28.4332 34.9803 28.4875C35.1981 28.5464 35.4114 28.6007 35.6202 28.6596C35.7563 28.7003 35.8925 28.7411 36.0195 28.7773C36.2147 28.8361 36.4053 28.895 36.5868 28.9584C36.6776 28.9901 36.7638 29.0218 36.8546 29.0535C37.2948 29.2164 37.7032 29.3885 38.0662 29.5832L38.0889 29.5877Z" fill="#75C0EB"/>
<path d="M119.617 23.5253C118.178 23.1359 114.307 22.0855 110.904 20.1024C108.567 18.7396 106.447 16.9422 105.485 14.6195C104.804 12.9806 104.696 11.0835 105.494 8.89217C105.649 8.48016 106.565 5.96282 108.63 3.6764C109.397 2.82974 110.327 2.01478 111.448 1.36733C111.516 1.32659 111.585 1.28131 111.653 1.24509C111.943 1.06851 112.252 0.91005 112.578 0.765167C115.306 -0.43464 119.944 -1.13641 132.751 5.99452C134.185 6.7959 135.596 7.57917 136.962 8.34886C142.98 11.7491 148.099 14.8278 150.59 17.4629C151.003 17.8975 151.343 18.3186 151.598 18.7261C152.451 20.0572 152.464 21.2524 151.375 22.2893C147.427 26.0607 130.359 26.441 119.613 23.5253H119.617Z" fill="#3CA4DC"/>
<path d="M115.841 12.7904C114.09 11.1876 112.447 9.34944 110.976 7.31203C110.132 6.15297 109.347 4.94411 108.63 3.67186C109.397 2.8252 110.327 2.01024 111.448 1.36279C112.197 2.6939 113.019 3.98426 113.899 5.2067C115.233 7.04037 116.694 8.69747 118.269 10.1418C119.009 10.8073 119.063 11.9437 118.392 12.6817C117.711 13.4107 116.572 13.465 115.841 12.7904Z" fill="#75C0EB"/>
<path d="M86.9559 44.7506C86.9196 44.7641 86.8878 44.7777 86.8561 44.7913L86.8288 44.8049C84.233 45.8417 81.374 46.1677 79.2773 44.9271C77.1988 43.6956 75.5469 40.7391 76.3729 38.5116C76.5635 38.0135 76.8585 37.5925 77.2306 37.2393C77.639 36.8499 78.1292 36.5421 78.6647 36.2976C80.185 35.6049 82.0229 35.4102 83.0894 35.297C87.3371 34.8578 93.1369 36.1889 93.4636 38.5251C93.5816 39.3673 93.0007 40.4222 91.9842 41.4635C91.6801 41.7805 91.3352 42.0929 90.954 42.4007C89.8376 43.3017 88.4444 44.1393 86.9604 44.746L86.9559 44.7506Z" fill="#75C0EB"/>
<path d="M199.666 65.0839C199.294 64.9843 198.922 64.8801 198.554 64.776C196.68 64.2599 194.833 63.7347 193.013 63.2095C192.278 62.9967 191.543 62.7793 190.821 62.562C190.358 62.4262 189.904 62.2904 189.451 62.1545C188.861 61.9825 188.28 61.8014 187.699 61.6248C187.118 61.4482 186.542 61.2717 185.961 61.0951C185.502 60.9502 185.039 60.8098 184.586 60.6695C183.655 60.3797 182.739 60.0945 181.831 59.8047C180.946 59.5195 180.066 59.2388 179.194 58.9535C177.606 58.4374 176.04 57.9213 174.502 57.4006C173.73 57.1425 172.968 56.8844 172.21 56.6264C171.452 56.3728 170.699 56.1102 169.955 55.8522C169.26 55.6122 168.575 55.3722 167.89 55.1323C167.835 55.1142 167.776 55.0915 167.717 55.0689C167.322 54.9331 166.932 54.7972 166.546 54.6569C165.716 54.3626 164.895 54.0683 164.082 53.7785C163.279 53.4888 162.494 53.2035 161.709 52.9183C161.259 52.7553 160.815 52.5923 160.365 52.4248C159.921 52.2663 159.481 52.1033 159.04 51.9403C157.947 51.5328 156.867 51.1299 155.796 50.7269C155.265 50.5277 154.729 50.3285 154.207 50.1248C153.676 49.9256 153.154 49.7263 152.637 49.5317C152.864 46.9645 153.418 44.4291 154.352 41.9887C154.629 41.2598 154.938 40.5444 155.274 39.8517C155.355 39.6887 155.432 39.5257 155.519 39.3627C155.532 39.3356 155.541 39.3129 155.555 39.2948C155.655 39.0911 155.764 38.8919 155.873 38.6926C155.954 38.5342 156.041 38.3757 156.136 38.2172C156.195 38.1041 156.263 37.9909 156.326 37.8867C156.449 37.6739 156.581 37.4611 156.712 37.2483C156.907 36.9359 157.107 36.6235 157.316 36.3157C157.398 36.1979 157.479 36.0802 157.561 35.958C158.437 34.7084 159.412 33.5267 160.474 32.4265C160.601 32.2906 160.733 32.1593 160.869 32.028C160.996 31.8967 161.132 31.7654 161.264 31.6387C161.446 31.4621 161.627 31.2901 161.818 31.1225C162.017 30.9414 162.217 30.7649 162.421 30.5883C162.771 30.2849 163.129 29.9861 163.497 29.6963C163.696 29.5379 163.901 29.3794 164.105 29.2255C164.341 29.0444 164.586 28.8678 164.831 28.6958C164.949 28.6143 165.067 28.5328 165.185 28.4467C165.494 28.2339 165.811 28.0302 166.129 27.8219C166.292 27.7223 166.451 27.6227 166.61 27.5231C166.773 27.4235 166.932 27.3284 167.096 27.2333C167.586 26.9436 168.085 26.6674 168.593 26.4093C168.934 26.2373 169.274 26.0698 169.619 25.9022C169.995 25.7211 170.372 25.5536 170.758 25.3906C170.967 25.3046 171.171 25.2186 171.38 25.1325C171.629 25.0284 171.879 24.9333 172.128 24.8428C172.455 24.716 172.791 24.5983 173.122 24.4851C182.013 28.6324 189.814 34.4458 195.073 42.6045C196.771 45.244 203.932 56.3275 199.666 65.0794V65.0839Z" fill="#8DCDE9"/>
<path d="M152.632 49.5452C150.082 48.5718 147.613 47.6165 145.212 46.6793C140.724 44.9226 136.499 43.2383 132.501 41.6627C130.069 40.6984 127.718 39.7838 125.449 38.919C114.543 34.7491 104.859 31.9873 96.1095 30.2261C88.9981 28.7954 82.504 28.0212 76.4773 27.6861C71.5807 27.4145 66.9835 27.4326 62.6178 27.6182C56.8679 27.8627 47.4694 28.2566 38.5746 29.5017C38.4475 29.5198 38.3204 29.5379 38.1934 29.556C68.2769 17.2229 94.5075 15.1085 103.688 14.6965C104.387 14.6648 104.991 14.6422 105.485 14.6286C105.735 14.6241 105.953 14.615 106.143 14.6105C110.182 14.5018 116.155 14.3569 123.175 14.5743C130.531 14.8052 139.031 15.4345 147.677 16.9286C148.648 17.0961 149.624 17.2772 150.599 17.4674C158.323 18.9751 166.07 21.2072 173.122 24.4987C172.786 24.6119 172.455 24.7296 172.128 24.8564C171.874 24.9469 171.625 25.0465 171.38 25.1461C171.171 25.2322 170.967 25.3182 170.758 25.4042C170.372 25.5672 169.995 25.7393 169.619 25.9158C169.274 26.0788 168.933 26.2463 168.593 26.4229C168.085 26.6855 167.59 26.9617 167.095 27.2469C166.932 27.3465 166.773 27.4416 166.61 27.5367C166.447 27.6363 166.288 27.7359 166.129 27.8355C165.811 28.0393 165.494 28.2475 165.185 28.4603C165.062 28.5418 164.944 28.6278 164.831 28.7093C164.586 28.8814 164.341 29.058 164.105 29.2391C163.901 29.393 163.696 29.5515 163.497 29.7099C163.129 29.9952 162.771 30.2985 162.421 30.6019C162.217 30.7784 162.017 30.955 161.818 31.1361C161.632 31.3082 161.445 31.4757 161.264 31.6523C161.128 31.779 160.996 31.9103 160.869 32.0416C160.738 32.1729 160.601 32.3042 160.474 32.4401C159.412 33.5403 158.437 34.722 157.561 35.9716C157.479 36.0893 157.397 36.207 157.316 36.3293C157.107 36.6371 156.907 36.945 156.712 37.2619C156.581 37.4747 156.453 37.6875 156.326 37.9003C156.258 38.009 156.195 38.1176 156.136 38.2308C156.045 38.3848 155.959 38.5432 155.873 38.7062C155.764 38.9009 155.655 39.1001 155.555 39.3084C155.541 39.331 155.532 39.3537 155.519 39.3763C155.432 39.5393 155.351 39.7023 155.274 39.8653C154.938 40.5625 154.629 41.2779 154.352 42.0023C153.417 44.4427 152.864 46.9781 152.637 49.5452H152.632Z" fill="#75C0EB"/>
<path d="M199.044 66.252C198.917 66.4602 198.781 66.664 198.64 66.8632C198.777 66.6594 198.917 66.4602 199.044 66.252Z" fill="#3CA4DC"/>
<path d="M190.426 73.3331L190.372 73.3603C187.377 74.6145 184.041 75.3253 180.733 75.6694C184.209 75.0989 187.826 74.1934 191.03 72.7491C191.239 72.654 191.443 72.5589 191.651 72.4593C191.887 72.3507 192.119 72.2284 192.346 72.1152C192.5 72.0383 192.654 71.9522 192.804 71.8707C192.913 71.8119 193.017 71.7576 193.122 71.6942C193.122 71.6942 193.131 71.6942 193.131 71.6851C193.385 71.5402 193.635 71.3953 193.88 71.2414C193.98 71.178 194.084 71.1146 194.184 71.0467C194.474 70.8656 194.751 70.6709 195.028 70.4717C195.119 70.4083 195.214 70.3359 195.3 70.268C195.414 70.1865 195.527 70.1005 195.636 70.0099C195.745 69.9194 195.854 69.8333 195.963 69.7428C196.103 69.6296 196.244 69.5119 196.38 69.3851C196.398 69.367 196.412 69.3579 196.426 69.3398C196.544 69.2447 196.653 69.1406 196.766 69.032C196.825 68.9776 196.879 68.9233 196.934 68.869C197.016 68.7875 197.097 68.7105 197.174 68.6245C197.229 68.5701 197.279 68.5203 197.333 68.4615C197.438 68.3573 197.533 68.2532 197.633 68.14C197.737 68.0268 197.837 67.9091 197.937 67.7869C198.05 67.6556 198.164 67.5152 198.268 67.3794C198.332 67.2979 198.395 67.2119 198.459 67.1304C197.746 68.1536 196.929 69.0727 196.031 69.8831C194.402 71.3365 192.496 72.4684 190.431 73.3422L190.426 73.3331Z" fill="#3CA4DC"/>
<path d="M180.733 75.6649L180.714 75.6739C177.774 75.9773 174.86 75.9999 172.228 75.8595C172.228 75.8595 172.219 75.8595 172.214 75.8595C169.791 75.7373 167.608 75.4792 165.852 75.1895C164.513 74.9631 163.229 74.7231 161.967 74.465C161.595 74.0893 161.228 73.7044 160.878 73.315C160.765 73.1928 160.656 73.0705 160.551 72.9483C160.406 72.7898 160.27 72.6269 160.134 72.4639C160.048 72.3688 159.961 72.2646 159.884 72.165C159.798 72.0654 159.721 71.9613 159.635 71.8617C159.43 71.6127 159.235 71.3591 159.04 71.1056C159.004 71.0558 158.968 71.006 158.927 70.9562C158.927 70.9471 158.918 70.9471 158.913 70.9381C158.745 70.7207 158.586 70.4944 158.427 70.2725C158.4 70.2363 158.378 70.2046 158.35 70.1684C158.341 70.1548 158.332 70.1412 158.323 70.1276C158.323 70.1186 158.314 70.1186 158.309 70.1095C158.3 70.1005 158.291 70.0824 158.282 70.0733C158.228 69.9963 158.178 69.9239 158.128 69.8469C158.033 69.7156 157.942 69.5798 157.856 69.4394C157.833 69.4123 157.815 69.3806 157.797 69.3489C157.788 69.3353 157.779 69.3172 157.769 69.3081C157.397 68.7422 157.048 68.1762 156.717 67.5922C156.594 67.3749 156.467 67.153 156.349 66.9312C156.104 66.4875 155.877 66.0392 155.659 65.5865C155.487 65.2243 155.314 64.853 155.155 64.4817C155.106 64.3731 155.056 64.2644 155.015 64.1603L154.983 64.0924C154.983 64.0924 154.969 64.0652 154.965 64.0471C154.924 63.9656 154.892 63.8841 154.86 63.7981C154.838 63.7483 154.82 63.6985 154.797 63.6487C154.783 63.6215 154.779 63.5943 154.765 63.5672C154.752 63.5355 154.738 63.4993 154.724 63.4676C154.715 63.4494 154.711 63.4313 154.702 63.4087C154.602 63.1506 154.497 62.8835 154.402 62.6254C154.266 62.2496 154.134 61.8693 154.012 61.489C153.962 61.3351 153.907 61.1766 153.862 61.0181C153.853 61 153.853 60.9865 153.844 60.9729C153.844 60.9638 153.844 60.9548 153.835 60.9457C153.776 60.7465 153.717 60.5428 153.662 60.339C153.631 60.2439 153.603 60.1443 153.581 60.0402C153.54 59.8908 153.499 59.7368 153.463 59.5829C153.422 59.4335 153.386 59.2796 153.349 59.1301C153.349 59.112 153.34 59.0985 153.336 59.0803C153.29 58.8902 153.249 58.6955 153.204 58.5053C153.204 58.4918 153.195 58.4782 153.195 58.4646C153.177 58.3786 153.163 58.2925 153.145 58.2111C153.018 57.5953 152.909 56.9795 152.818 56.3638C152.773 56.0378 152.732 55.7164 152.696 55.3949C152.659 55.087 152.628 54.7791 152.605 54.4713C152.6 54.3943 152.591 54.3173 152.591 54.2358C152.591 54.2268 152.591 54.2132 152.591 54.2041C152.591 54.1815 152.587 54.1589 152.582 54.1362C152.569 53.9778 152.56 53.8238 152.555 53.6699C152.555 53.6608 152.555 53.6473 152.555 53.6382C152.546 53.525 152.541 53.4073 152.537 53.2941C152.537 53.2805 152.537 53.2715 152.537 53.2579C152.528 53.0406 152.519 52.8278 152.519 52.6104C152.514 52.5244 152.514 52.4384 152.519 52.3524C152.514 52.1577 152.519 51.9585 152.519 51.7638C152.519 51.637 152.519 51.5148 152.523 51.3925C152.528 51.2205 152.537 51.0439 152.541 50.8718C152.541 50.7179 152.551 50.564 152.56 50.41C152.578 50.1203 152.6 49.8396 152.623 49.5543C153.141 49.7535 153.667 49.9482 154.193 50.1474C154.72 50.3466 155.251 50.5504 155.782 50.7496C156.853 51.1526 157.933 51.5555 159.027 51.963C159.467 52.126 159.907 52.289 160.352 52.4474C160.796 52.6104 161.246 52.778 161.695 52.9409C162.476 53.2307 163.265 53.5114 164.068 53.8012C164.881 54.091 165.702 54.3852 166.533 54.6795C166.918 54.8199 167.309 54.9557 167.704 55.0915C167.762 55.1142 167.821 55.1368 167.876 55.1549C168.561 55.3949 169.246 55.6349 169.941 55.8748C170.685 56.1329 171.438 56.391 172.196 56.649C172.95 56.9116 173.717 57.1697 174.488 57.4233C176.026 57.9439 177.592 58.4601 179.181 58.9762C180.052 59.2614 180.932 59.5422 181.817 59.8274C182.725 60.1172 183.642 60.4069 184.572 60.6922C185.026 60.8325 185.484 60.9729 185.947 61.1178C186.523 61.2943 187.1 61.4709 187.685 61.6475C188.27 61.8241 188.851 62.0052 189.437 62.1772C189.891 62.313 190.349 62.4489 190.807 62.5847C191.533 62.802 192.269 63.0193 192.999 63.2321C194.819 63.7573 196.666 64.2825 198.54 64.7987C198.908 64.9028 199.28 65.0024 199.652 65.1065C199.58 65.2967 199.493 65.4597 199.403 65.6272C199.28 65.8581 199.162 66.0664 199.035 66.2701C198.971 66.3743 198.908 66.4784 198.84 66.5825C198.776 66.6821 198.704 66.7817 198.631 66.8814C198.572 66.9719 198.509 67.0579 198.445 67.144C198.382 67.2255 198.318 67.3115 198.254 67.393C198.15 67.5333 198.037 67.6692 197.923 67.8005C197.823 67.9227 197.723 68.0404 197.619 68.1536C197.519 68.2668 197.424 68.3709 197.32 68.4751C197.27 68.5339 197.215 68.5837 197.161 68.6381C197.084 68.7196 196.997 68.801 196.92 68.8825C196.866 68.9369 196.811 68.9912 196.752 69.0455C196.639 69.1497 196.53 69.2538 196.412 69.3534C196.394 69.3715 196.38 69.3806 196.367 69.3987C196.226 69.5209 196.09 69.6387 195.949 69.7564C195.84 69.8469 195.731 69.9375 195.622 70.0235C195.513 70.1095 195.395 70.1955 195.286 70.2816C195.196 70.3495 195.105 70.4219 195.014 70.4853C194.737 70.6845 194.456 70.8747 194.17 71.0603C194.07 71.1282 193.97 71.1916 193.866 71.255C193.621 71.4089 193.371 71.5538 193.117 71.6987C193.117 71.7032 193.113 71.7078 193.108 71.7078C192.999 71.7711 192.895 71.8255 192.79 71.8843C192.641 71.9658 192.486 72.0518 192.332 72.1288C192.105 72.2465 191.874 72.3643 191.638 72.4729C191.434 72.5725 191.225 72.6676 191.016 72.7627C187.812 74.207 184.195 75.1125 180.719 75.683L180.733 75.6649Z" fill="#8DCDE9"/>
<path d="M161.967 74.4604C148.602 71.7529 139.335 67.1665 130.187 61.7968C130.187 61.7968 130.187 61.7968 130.182 61.7968C122.567 57.319 115.029 52.3025 105.272 47.3674C104.042 46.7426 102.776 46.1178 101.469 45.5021C100.661 45.1172 99.8262 44.7324 98.9776 44.3339C96.8038 43.3515 94.4712 42.3871 91.9797 41.4725C87.8954 39.9694 83.3617 38.6066 78.3516 37.4883C77.9795 37.4022 77.6073 37.3253 77.2261 37.2438C76.2413 37.031 75.2475 36.8318 74.2219 36.6461C73.9223 36.5918 73.6183 36.5375 73.3142 36.4831C64.0518 34.8441 53.2918 34.0654 40.8119 34.7762C35.1074 35.1022 29.0489 35.7361 22.6047 36.7412C25.9721 35.0071 30.6918 32.6935 36.4552 30.2668C36.968 30.054 37.4854 29.8366 38.0164 29.6193C38.0436 29.6057 38.0754 29.5922 38.1117 29.5831C38.1389 29.5695 38.1661 29.5559 38.1979 29.5514C38.3249 29.5333 38.452 29.5152 38.5791 29.5016C47.4739 28.2565 56.8724 27.8626 62.6223 27.6181C66.9926 27.4325 71.5852 27.4144 76.4819 27.6861C82.5085 28.0211 89.0027 28.7953 96.114 30.226C104.868 31.9872 114.553 34.7491 125.453 38.919C127.722 39.7837 130.073 40.7028 132.506 41.6627C136.504 43.2383 140.729 44.9225 145.217 46.6792C147.618 47.6164 150.086 48.5718 152.637 49.5452C152.614 49.8304 152.591 50.1157 152.573 50.4009C152.564 50.5548 152.555 50.7042 152.555 50.8627C152.546 51.0348 152.542 51.2113 152.537 51.3834C152.537 51.5102 152.537 51.6324 152.532 51.7546C152.532 51.9493 152.528 52.1485 152.532 52.3432C152.532 52.4293 152.532 52.5198 152.532 52.6013C152.532 52.8186 152.537 53.0314 152.551 53.2487C152.551 53.2623 152.551 53.2714 152.551 53.285C152.551 53.3982 152.56 53.5159 152.569 53.6291C152.569 53.6381 152.569 53.6517 152.569 53.6608C152.569 53.8192 152.587 53.9777 152.596 54.1271C152.596 54.1497 152.601 54.1724 152.605 54.195C152.605 54.2041 152.605 54.2176 152.605 54.2267C152.605 54.3082 152.614 54.3806 152.619 54.4621C152.641 54.77 152.673 55.0779 152.709 55.3858C152.741 55.7117 152.787 56.0332 152.832 56.3547C152.923 56.9704 153.027 57.5862 153.159 58.2019C153.177 58.2834 153.191 58.3694 153.209 58.4509C153.209 58.4509 153.218 58.4826 153.218 58.4962C153.263 58.6864 153.304 58.881 153.349 59.0712C153.349 59.0893 153.358 59.1029 153.363 59.121C153.399 59.2749 153.436 59.4244 153.476 59.5738C153.517 59.7232 153.558 59.8771 153.594 60.031C153.617 60.1352 153.649 60.2348 153.676 60.3299C153.731 60.5336 153.79 60.7374 153.849 60.9366C153.849 60.9456 153.849 60.9547 153.858 60.9637C153.867 60.9818 153.867 60.9954 153.876 61.009C153.921 61.1675 153.976 61.3259 154.026 61.4799C154.148 61.8647 154.28 62.2405 154.416 62.6163C154.511 62.8789 154.616 63.1415 154.715 63.3996C154.724 63.4177 154.729 63.4358 154.738 63.4584C154.752 63.4901 154.765 63.5263 154.779 63.558C154.792 63.5852 154.797 63.6124 154.811 63.6395C154.833 63.6893 154.851 63.7391 154.874 63.7889C154.901 63.8704 154.933 63.9565 154.979 64.038C154.979 64.0561 154.988 64.0696 154.997 64.0832L155.028 64.1511C155.069 64.2553 155.119 64.3639 155.169 64.4726C155.333 64.8439 155.5 65.2151 155.673 65.5773C155.891 66.0256 156.118 66.4783 156.363 66.922C156.481 67.1439 156.608 67.3657 156.73 67.583C157.062 68.1671 157.411 68.733 157.783 69.299C157.792 69.3081 157.801 69.3262 157.81 69.3397C157.829 69.3714 157.847 69.3986 157.869 69.4303C157.956 69.5707 158.046 69.7065 158.142 69.8378C158.192 69.9147 158.246 69.9872 158.296 70.0642C158.305 70.0732 158.314 70.0913 158.323 70.1004C158.323 70.1094 158.332 70.1094 158.337 70.1185C158.346 70.1321 158.355 70.1457 158.364 70.1592C158.391 70.1955 158.414 70.2271 158.441 70.2634C158.6 70.4852 158.759 70.7116 158.927 70.9289C158.927 70.938 158.936 70.938 158.94 70.947C158.977 70.9968 159.013 71.0466 159.054 71.0964C159.244 71.35 159.444 71.6035 159.648 71.8525C159.73 71.9522 159.812 72.0518 159.898 72.1559C159.98 72.26 160.061 72.3596 160.148 72.4547C160.284 72.6177 160.42 72.7807 160.565 72.9392C160.669 73.0614 160.778 73.1837 160.892 73.3059C161.241 73.6953 161.609 74.0801 161.981 74.4559L161.967 74.4604Z" fill="#3CA4DC"/>
<path d="M171.162 47.8972C172.821 47.8972 174.166 46.5553 174.166 44.9C174.166 43.2446 172.821 41.9027 171.162 41.9027C169.503 41.9027 168.157 43.2446 168.157 44.9C168.157 46.5553 169.503 47.8972 171.162 47.8972Z" fill="#1F5A75"/>
<path d="M146.882 40.6983C145.525 38.0135 138.904 38.2399 134.502 40.4674C133.744 40.8477 128.684 43.5009 129.07 46.5932C129.433 49.509 134.493 51.6551 138.509 50.9714C144.069 50.0251 148.312 43.5371 146.882 40.6983Z" fill="#75C0EB"/>
<path d="M85.0453 84.4575C84.9409 84.625 84.8274 84.7834 84.7094 84.9419C83.7973 86.1689 82.5992 87.0744 81.2014 87.4094C77.9612 88.1882 72.942 86.2051 73.1598 82.7777C73.3368 80.0431 74.1174 77.8744 72.9374 75.8641C72.3747 74.9088 71.1766 74.0576 68.6806 73.7452C67.4689 73.5913 65.9487 73.5686 64.0381 73.7181C64.147 73.5551 64.2831 73.3739 64.4374 73.1747C65.5085 71.7802 67.6641 69.4757 71.045 68.5566C76.9219 66.9493 84.3918 70.0598 86.2388 75.8958C87.1328 78.7391 86.5746 82.0805 85.0453 84.4529V84.4575Z" fill="white"/>
<path d="M85.0453 84.4575C84.9409 84.625 84.8274 84.7834 84.7094 84.9419C83.7973 86.1689 82.5992 87.0744 81.2014 87.4094C77.9612 88.1882 72.942 86.2051 73.1598 82.7777C73.3368 80.0431 74.1174 77.8744 72.9374 75.8641C72.3747 74.9088 71.1766 74.0576 68.6806 73.7452C67.4689 73.5913 65.9487 73.5686 64.0381 73.7181C64.147 73.5551 64.2831 73.3739 64.4374 73.1747C65.5085 71.7802 67.6641 69.4757 71.045 68.5566C76.9219 66.9493 84.3918 70.0598 86.2388 75.8958C87.1328 78.7391 86.5746 82.0805 85.0453 84.4529V84.4575Z" fill="#3CA4DC"/>
<path d="M65.9306 62.5983C63.8748 65.8763 59.6452 68.8463 54.0315 70.9154C53.4007 71.1509 52.7563 71.3682 52.0937 71.581C51.5491 71.7485 51 71.916 50.4373 72.07C55.1615 68.1627 56.3686 64.7579 56.5774 62.3629C56.8678 58.9808 55.2613 56.9977 56.6182 54.2857C57.4669 52.5969 59.2458 51.0892 61.0793 50.6817C61.6601 50.5504 62.2501 50.5278 62.8265 50.65C65.7808 51.2612 67.3737 55.4855 67.3192 58.2563C67.2965 59.7323 66.8155 61.1902 65.9306 62.5983Z" fill="#75C0EB"/>
<path d="M84.7094 84.9418C83.7973 86.1688 82.5992 87.0743 81.2014 87.4094C77.9612 88.1881 72.942 86.205 73.1598 82.7777C73.3368 80.043 74.1174 77.8743 72.9374 75.864C72.3747 74.9087 71.1766 74.0575 68.6806 73.7451C67.4689 73.5912 65.9487 73.5686 64.0381 73.718C64.147 73.555 64.2831 73.3739 64.4374 73.1747C65.2679 72.6857 66.2799 72.4005 67.1513 72.156C69.8515 71.3999 72.0888 71.9839 73.2551 72.3054C74.8162 72.731 78.769 73.8221 79.6585 76.6202C80.1803 78.2908 79.0776 78.8432 79.5949 81.2564C79.7583 82.0306 80.3301 84.6973 82.2997 85.2588C83.1982 85.5168 84.0741 85.2542 84.7049 84.9373L84.7094 84.9418Z" fill="#75C0EB"/>
<path d="M58.4744 64.7036C56.8815 67.3612 54.3537 70.1185 52.0891 71.5764C51.5491 71.7485 50.9955 71.916 50.4373 72.0654C55.1615 68.1581 56.3641 64.7534 56.5774 62.3537C56.8678 58.9762 55.2613 56.9886 56.6182 54.2811C57.4669 52.5923 59.2458 51.0846 61.0747 50.6771C61.5376 54.2992 61.465 59.6689 58.4744 64.7036Z" fill="#3CA4DC"/>
<path d="M44.9323 143.818C43.6979 141.844 42.2502 139.712 40.5802 137.426C38.9102 135.135 37.104 132.821 35.1798 130.494C33.2465 128.171 31.227 125.939 29.1213 123.802C27.0111 121.665 24.8963 119.782 22.7906 118.143V143.818H9.11255V83.1987H22.7906V105.986C26.3077 102.301 29.8837 98.4476 33.5097 94.4271C37.1357 90.3976 40.4894 86.6623 43.5618 83.2033H59.7948C55.656 88.1202 51.4945 92.8425 47.3148 97.3746C43.1261 101.911 38.7241 106.47 34.0997 111.061C38.9601 115.105 43.6525 119.904 48.1635 125.455C52.679 131.005 57.0265 137.127 61.1926 143.818H44.9323Z" fill="#3CA4DC"/>
<path d="M83.9016 96.5823C87.7545 96.5823 90.9721 97.0214 93.5407 97.8998C96.1183 98.7736 98.1696 100.028 99.7262 101.658C101.274 103.297 102.367 105.275 103.007 107.607C103.647 109.939 103.978 112.533 103.978 115.385V142.505C102.1 142.913 99.5038 143.397 96.1728 143.945C92.8418 144.502 88.8074 144.778 84.0695 144.778C81.0879 144.778 78.3832 144.516 75.9643 143.995C73.5319 143.47 71.4489 142.605 69.6926 141.41C67.9363 140.215 66.5976 138.657 65.6627 136.733C64.7278 134.804 64.2559 132.45 64.2559 129.643C64.2559 126.836 64.7959 124.689 65.876 122.824C66.9606 120.959 68.4083 119.469 70.219 118.36C72.0252 117.255 74.0991 116.454 76.4408 115.956C78.7825 115.467 81.2059 115.213 83.7201 115.213C85.4173 115.213 86.924 115.286 88.2355 115.435C89.5471 115.575 90.6181 115.77 91.4304 115.997V114.774C91.4304 112.56 90.7588 110.781 89.42 109.441C88.0722 108.096 85.7395 107.426 82.404 107.426C80.1758 107.426 77.9884 107.589 75.8237 107.91C73.6635 108.232 71.7938 108.68 70.2145 109.264L68.5444 98.7736C69.3068 98.5382 70.2553 98.2892 71.3989 98.0266C72.5335 97.764 73.7769 97.5376 75.1248 97.3293C76.4681 97.1211 77.884 96.9535 79.377 96.8041C80.8701 96.6638 82.3677 96.5823 83.8925 96.5823H83.9016ZM84.9544 134.723C86.2387 134.723 87.4641 134.695 88.6349 134.637C89.8057 134.578 90.7406 134.487 91.4395 134.374V124.486C90.9176 124.373 90.128 124.259 89.0796 124.137C88.0222 124.024 87.0602 123.965 86.1843 123.965C84.959 123.965 83.8018 124.037 82.7217 124.178C81.637 124.327 80.6886 124.603 79.8672 125.011C79.0548 125.418 78.4059 125.971 77.9384 126.677C77.4665 127.374 77.2396 128.248 77.2396 129.299C77.2396 131.34 77.9248 132.758 79.2953 133.541C80.6704 134.333 82.5583 134.723 84.9544 134.723Z" fill="#3CA4DC"/>
<path d="M143.601 109.359C142.43 109.069 141.06 108.761 139.485 108.44C137.91 108.119 136.208 107.956 134.398 107.956C133.576 107.956 132.601 108.028 131.466 108.177C130.322 108.318 129.46 108.485 128.875 108.653V143.818H115.809V100.259C118.151 99.4392 120.91 98.6649 124.091 97.936C127.282 97.2116 130.826 96.8403 134.743 96.8403C135.451 96.8403 136.29 96.8811 137.288 96.9762C138.282 97.0622 139.272 97.1844 140.27 97.3248C141.264 97.4651 142.253 97.6462 143.247 97.85C144.245 98.0492 145.09 98.2982 145.793 98.5925L143.597 109.355L143.601 109.359Z" fill="#3CA4DC"/>
<path d="M195.69 120.814C195.69 124.372 195.255 127.61 194.379 130.525C193.503 133.446 192.219 135.949 190.517 138.05C188.815 140.151 186.714 141.781 184.204 142.949C181.695 144.117 178.795 144.701 175.527 144.701C173.717 144.701 172.015 144.525 170.44 144.176C168.865 143.827 167.345 143.329 165.879 142.687V160.004H152.814V99.3893C153.985 99.0407 155.323 98.7056 156.844 98.3796C158.364 98.0582 159.961 97.782 161.622 97.5556C163.292 97.3202 164.985 97.13 166.71 96.9852C168.43 96.8357 170.086 96.7633 171.661 96.7633C175.455 96.7633 178.854 97.3338 181.826 98.4702C184.808 99.6021 187.322 101.209 189.369 103.283C191.415 105.348 192.981 107.874 194.066 110.844C195.141 113.819 195.686 117.142 195.686 120.818L195.69 120.814ZM182.362 121.162C182.362 117.142 181.454 113.923 179.643 111.501C177.833 109.078 175.141 107.869 171.579 107.869C170.408 107.869 169.324 107.91 168.334 107.996C167.345 108.082 166.524 108.186 165.879 108.304V131.838C166.701 132.359 167.762 132.798 169.083 133.147C170.395 133.496 171.724 133.672 173.072 133.672C179.267 133.672 182.362 129.502 182.362 121.158V121.162Z" fill="#3CA4DC"/>
</g>
<defs>
<clipPath id="clip0_4208_13566">
<rect width="201" height="160" fill="white"/>
</clipPath>
</defs>
</svg>
