<svg width="118" height="118" viewBox="0 0 118 118" fill="none" xmlns="http://www.w3.org/2000/svg">
<path d="M58.5834 102.25C82.6999 102.25 102.25 82.6997 102.25 58.5833C102.25 34.4669 82.6999 14.9166 58.5834 14.9166C34.467 14.9166 14.9167 34.4669 14.9167 58.5833C14.9167 82.6997 34.467 102.25 58.5834 102.25Z" stroke="#1D0F48" stroke-width="8" stroke-linecap="round" stroke-linejoin="round"/>
<path d="M58.5833 4V44.9375M96.7917 20.375L68.2446 48.9221M113.167 58.5833H72.2292M96.7917 96.7917L68.2446 68.2446M58.5833 72.2292V113.167M48.9221 68.2446L20.375 96.7917M44.9375 58.5833H4M48.9221 48.9221L20.375 20.375" stroke="#1D0F48" stroke-width="8" stroke-linecap="round" stroke-linejoin="round"/>
<path d="M58.5836 72.229C66.12 72.229 72.2294 66.1196 72.2294 58.5832C72.2294 51.0468 66.12 44.9374 58.5836 44.9374C51.0472 44.9374 44.9377 51.0468 44.9377 58.5832C44.9377 66.1196 51.0472 72.229 58.5836 72.229Z" stroke="#1D0F48" stroke-width="8" stroke-linecap="round" stroke-linejoin="round"/>
</svg>
