<svg width="28" height="30" viewBox="0 0 28 30" fill="none" xmlns="http://www.w3.org/2000/svg">
<path d="M2.85742 0C3.54059 8.60292e-05 4.13789 0.461782 4.30957 1.12305L5.69824 6.4707H26.499C27.4759 6.4707 28.1926 7.38961 27.9541 8.33691L24.8799 20.5391C24.7117 21.2051 24.1118 21.6719 23.4248 21.6719H9.64355L10.1816 23.7432C10.2195 23.8883 10.3197 24.003 10.4482 24.0654C10.5589 24.0433 10.6717 24.0293 10.7871 24.0293C10.9716 24.0293 11.1498 24.0618 11.3213 24.1172H21.8809C22.0524 24.0617 22.2305 24.0293 22.415 24.0293C23.6502 24.0293 24.6522 25.3455 24.6523 26.9697C24.6523 28.5941 23.6502 29.9111 22.415 29.9111C21.1801 29.9108 20.1787 28.5939 20.1787 26.9697C20.1788 26.2673 20.3672 25.623 20.6797 25.1172H12.5225C12.835 25.623 13.0234 26.2672 13.0234 26.9697C13.0234 28.594 12.0222 29.9111 10.7871 29.9111C9.55193 29.9111 8.55078 28.5941 8.55078 26.9697C8.55085 25.9744 8.92753 25.0956 9.50293 24.5635C9.36996 24.4003 9.26942 24.2078 9.21387 23.9941L8.51367 21.2979L4.82715 7.09668L3.34082 1.37402C3.28347 1.15386 3.08496 1.00009 2.85742 1H0.5C0.22403 0.999989 0.000263684 0.775911 0 0.5C0 0.223864 0.223867 1.0898e-05 0.5 0H2.85742Z" fill="#1D0F48"/>
</svg>

